<svg id="Layer_1" data-name="Layer 1" xmlns="http://www.w3.org/2000/svg" viewBox="0 0 302.39 52.12"><defs><style>.cls-1{fill:#92278f;}.cls-2{fill:#ee2a7b;}.cls-3{fill:#231f20;}</style></defs><path class="cls-1" d="M143.11,224.43q0,3.45-3.63,6.45a34.53,34.53,0,0,1-6.63,4,11.53,11.53,0,0,1,1.8,5.65q0,5.22-6.75,7.73A32.4,32.4,0,0,1,116.65,250H104.47l8.46-24h8.43l-7.19,20.29h1.19a22.46,22.46,0,0,0,6.94-.93c2.8-1,4.2-2.51,4.2-4.67a4.82,4.82,0,0,0-.94-2.47,4.67,4.67,0,0,1-.94-2.1,1.7,1.7,0,0,1,0-.47,5,5,0,0,1,2.55-2,19,19,0,0,0,4.22-2.56,5.79,5.79,0,0,0,2.25-4.5c0-2.4-1.83-3.61-5.51-3.61H100.76l3.61-5.9h27.35c3.6,0,6.29.48,8.09,1.45A6.2,6.2,0,0,1,143.11,224.43Z" transform="translate(-100.76 -202.94)"/><path class="cls-2" d="M252,210.18a10,10,0,0,1,.77-1.41c.58-1.05,1.07-2,1.46-2.69a61.89,61.89,0,0,1,18.57-3.14,22.89,22.89,0,0,1,5.25.59,8.36,8.36,0,0,1,3.87,2,9,9,0,0,1,2.28,4,36.16,36.16,0,0,1,1.32,6.53l.67,5.27,2,13.63a104.67,104.67,0,0,0,2.46,12.95,99.59,99.59,0,0,0-13.22,4.57q0-3.31-.93-18c-3.66-.24-6.14-.35-7.44-.35s-3.26.15-5.56.27l-6.43.37q-11.13,12.27-18,16.26t-12.92,4a15.12,15.12,0,0,1-9.61-2.93c-2.52-1.93-3.77-3.95-3.77-6.06,0-2.38,1.31-5,4-8a35.72,35.72,0,0,1,10.34-7.65,33.53,33.53,0,0,1,15.27-3.25q2.1,0,4,.12c1.28.08,2.73.2,4.34.38s3.25.38,4.91.62l5.89-8.53q1.73-2.52,6.91-11.51c-2.3.06-4.86.25-7.66.58S255,209.63,252,210.18ZM227.4,236a11.25,11.25,0,0,0-2.28,6.48,5.55,5.55,0,0,0,2.26,4.92,9.25,9.25,0,0,0,5.36,1.55,46.68,46.68,0,0,0,6.5-.61q.15-.27,3.43-3.75,3-3.17,9.05-10.14Q237.25,234.91,227.4,236Zm33.46-6.91c1.51.17,3.62.51,6.36,1s5.7,1.08,8.9,1.74A182.67,182.67,0,0,0,272.49,212,167.64,167.64,0,0,1,260.86,229.05Z" transform="translate(-100.76 -202.94)"/><path class="cls-3" d="M295.56,236.49l0-1.43,1.67-.17c1.65-.18,2.89-.33,3.69-.44a5.53,5.53,0,0,1,0,.59c0,.38,0,1-.12,1.87.37,0,1.12.05,2.23.05.76,0,1.27,0,1.53-.05-.32,1.9-.52,3-.61,3.36-.79.11-1.87.2-3.26.26-.08,1.73-.12,2.92-.12,3.55a3.83,3.83,0,0,0,.72,2.44,4.68,4.68,0,0,0,2.44,1.41l-3,4.61q-5.74-1.59-5.75-5.95c0-.48.09-1.4.25-2.77s.26-2.38.28-2.87a12.43,12.43,0,0,0-1.79.19l1.86-3.19v-.36Z" transform="translate(-100.76 -202.94)"/><path class="cls-3" d="M307.57,236.49l0-1.43,1.67-.17c1.65-.18,2.88-.33,3.69-.44,0,.18,0,.38,0,.59,0,.38,0,1-.13,1.87.38,0,1.12.05,2.24.05.76,0,1.27,0,1.53-.05-.32,1.9-.53,3-.62,3.36-.78.11-1.87.2-3.25.26-.08,1.73-.12,2.92-.12,3.55a3.83,3.83,0,0,0,.72,2.44,4.68,4.68,0,0,0,2.44,1.41l-3,4.61Q307,251,307,246.59a27.18,27.18,0,0,1,.25-2.77c.16-1.42.26-2.38.28-2.87a12.28,12.28,0,0,0-1.79.19l1.86-3.19v-.36Z" transform="translate(-100.76 -202.94)"/><path class="cls-3" d="M318.41,240l4-3.36,4.73.35a5.08,5.08,0,0,1,3.23,1.15,3,3,0,0,1,1,2.14,7.41,7.41,0,0,1-.14,1.32c-.13.63-.26,1.58-.4,2.83a14.13,14.13,0,0,1-3.66,1.46,14.76,14.76,0,0,1-2.42.21,8.06,8.06,0,0,1-1.09-.09c1.15,1.43,2.27,2.15,3.36,2.15a5,5,0,0,0,3.48-1.46h.14c-1.18,3.65-3.34,5.48-6.51,5.48a7.14,7.14,0,0,1-3.57-.68,4.35,4.35,0,0,1-1.68-2,12.76,12.76,0,0,1-.6-4.8l.09-3Zm5.31.18-.46,4.28c1,0,2.12,0,3.29-.1,0-.77,0-1.14,0-1.11a3,3,0,0,0-.8-2.25A3,3,0,0,0,323.72,240.2Z" transform="translate(-100.76 -202.94)"/><path class="cls-3" d="M337.45,237.19l1.69-.51V239c.32-.2.91-.54,1.75-1a8.61,8.61,0,0,0,.83-.49l1.49-.9a11.71,11.71,0,0,1,2.5.57,3.28,3.28,0,0,1,1.37,1,3.75,3.75,0,0,1,.72,1.32,7.65,7.65,0,0,1,.18,2,28.89,28.89,0,0,1-.32,3.91,37.67,37.67,0,0,0-.37,4.11L344,251.53l-.49.34a13.33,13.33,0,0,1-2.3,1.32,39.79,39.79,0,0,0,1-7.63,11.45,11.45,0,0,0-1.46-5.84c0,.05-.25.26-.64.63l-.31.36-.72.72.08,10.1a28.44,28.44,0,0,0-6,.85c0-.61,0-1,0-1.22,0-.72,0-1.16,0-1.3v-.4c0-.49-.05-.84-.05-1v-4.15c0-2.09,0-4-.11-5.64l.53-.17.67-.22c.26-.08.52-.17.8-.28Z" transform="translate(-100.76 -202.94)"/><path class="cls-3" d="M351.81,236.49l0-1.43,1.67-.17c1.66-.18,2.89-.33,3.69-.44a5.53,5.53,0,0,1,0,.59c0,.38,0,1-.12,1.87.37,0,1.12.05,2.23.05.76,0,1.27,0,1.53-.05-.32,1.9-.52,3-.61,3.36-.79.11-1.87.2-3.26.26-.08,1.73-.12,2.92-.12,3.55a3.83,3.83,0,0,0,.72,2.44,4.68,4.68,0,0,0,2.44,1.41l-3,4.61q-5.74-1.59-5.74-5.95c0-.48.08-1.4.24-2.77s.26-2.38.28-2.87a12.43,12.43,0,0,0-1.79.19l1.86-3.19v-.36Z" transform="translate(-100.76 -202.94)"/><path class="cls-3" d="M361.55,241.65l.47-2.19a31.16,31.16,0,0,0,8.11-2.75v3.1l-.06,1.32c0,.17,0,.33,0,.47,0,.39,0,.92,0,1.6,0,.31,0,.55,0,.74l.12,3.09c0,.67.11,2.17.26,4.5-2.41.43-4.51.74-6.29.95a65.7,65.7,0,0,0,.25-6.59l-.07-4.41a4.2,4.2,0,0,1-1.59.3A6,6,0,0,1,361.55,241.65Zm5.2-13a3.23,3.23,0,0,1,2.29.91,3.25,3.25,0,0,1,0,4.59,3.18,3.18,0,0,1-2.29,1,3.12,3.12,0,0,1-2.27-1,3.06,3.06,0,0,1-.94-2.27,3.23,3.23,0,0,1,3.21-3.23Z" transform="translate(-100.76 -202.94)"/><path class="cls-3" d="M374.35,236.29a5.46,5.46,0,0,1,3.76,1.59q1,1.29,2.42,6.5c.38,1.35.73,2.47,1.06,3.37a19.81,19.81,0,0,0,1.81-6.45,2.74,2.74,0,0,0-1.53-2.3c.91-.4,2.28-1.08,4.09-2.06,1.61.91,2.41,1.93,2.41,3.08a10.62,10.62,0,0,1-.21,2,6.54,6.54,0,0,1-.47,1.53,10.25,10.25,0,0,1-1.32,1.47c-.72.7-1.72,1.62-3,2.74-.11.23-.54,1.26-1.26,3.12a24.35,24.35,0,0,0-5.1,1.45,52.77,52.77,0,0,0-1.78-6.2c-.45-1.14-.85-2.05-1.19-2.74a3.39,3.39,0,0,0-1.71-1.5C372.57,241.39,373.24,239.53,374.35,236.29Z" transform="translate(-100.76 -202.94)"/><path class="cls-3" d="M390.25,240l4-3.36,4.73.35a5.08,5.08,0,0,1,3.23,1.15,3,3,0,0,1,1,2.14,8.48,8.48,0,0,1-.14,1.32c-.13.63-.27,1.58-.41,2.83a14.1,14.1,0,0,1-3.65,1.46,15,15,0,0,1-2.43.21,8.19,8.19,0,0,1-1.09-.09c1.15,1.43,2.27,2.15,3.36,2.15a5,5,0,0,0,3.48-1.46h.14q-1.76,5.47-6.51,5.48a7.07,7.07,0,0,1-3.56-.68,4.31,4.31,0,0,1-1.69-2,12.76,12.76,0,0,1-.6-4.8l.09-3Zm5.31.18-.45,4.28c1,0,2.11,0,3.28-.1,0-.77,0-1.14,0-1.11a3,3,0,0,0-.79-2.25A3.08,3.08,0,0,0,395.56,240.2Z" transform="translate(-100.76 -202.94)"/><path class="cls-3" d="M154.58,231.76c.18,0,1.24.25,3.19.61,1.75.32,2.91.56,3.48.74a4.92,4.92,0,0,1,1.56.95,4,4,0,0,1,1.11,1.83,10.9,10.9,0,0,1,.37,3.14l-.09,5.17a16.57,16.57,0,0,0,.17,2.15,61.67,61.67,0,0,0-6,1.51,53.94,53.94,0,0,0,.32-6.63,19.63,19.63,0,0,1-1.74,2.08c-1,1.05-2.34,2.49-4.12,4.32a20.22,20.22,0,0,1-3.16-1c-.05-.45-.14-1.14-.28-2.08a29.57,29.57,0,0,1-.3-4,8.25,8.25,0,0,1,1.07-4.33A19.35,19.35,0,0,1,154.58,231.76Zm-.07,4.23.39,6.91a26.92,26.92,0,0,0,1.92-2.42,28,28,0,0,0,1.61-2.52C157.79,237,156.48,236.38,154.51,236Z" transform="translate(-100.76 -202.94)"/><path class="cls-3" d="M172.11,231.65l3,.21q3.13.19,6.1.2l-.38,1.31a12.56,12.56,0,0,0-.64,3,33.5,33.5,0,0,0-8-1.32c.57,1.66,2.41,2.5,5.52,2.5a17.86,17.86,0,0,1,3.38.21,2.38,2.38,0,0,1,1.39.88,3.05,3.05,0,0,1,.49,1.88,6.38,6.38,0,0,1-.56,2.58,7.09,7.09,0,0,1-1.39,2,7.18,7.18,0,0,1-2.85,1.42,14.2,14.2,0,0,1-4.25.64,12.09,12.09,0,0,1-6.45-1.59,26.44,26.44,0,0,1,1-2.58,15.36,15.36,0,0,0,6.21,1.19,6,6,0,0,0,3.37-1,3.92,3.92,0,0,0-2.34-.76l-.63,0-1,0a10.78,10.78,0,0,1-5.27-1,3.74,3.74,0,0,1-1.81-3.56,5.15,5.15,0,0,1,1.09-3.35A13.55,13.55,0,0,1,172.11,231.65Z" transform="translate(-100.76 -202.94)"/><path class="cls-3" d="M185.61,235.06l3.95-3.36,4.73.36a5.11,5.11,0,0,1,3.24,1.14,3,3,0,0,1,1,2.14,8.48,8.48,0,0,1-.14,1.32c-.13.63-.26,1.58-.4,2.83a14.27,14.27,0,0,1-3.66,1.46,14.78,14.78,0,0,1-2.43.21,8.32,8.32,0,0,1-1.09-.09c1.15,1.43,2.27,2.15,3.36,2.15a5,5,0,0,0,3.48-1.46h.14c-1.17,3.66-3.34,5.48-6.5,5.48a7.14,7.14,0,0,1-3.57-.68,4.37,4.37,0,0,1-1.69-2,12.82,12.82,0,0,1-.59-4.8l.08-3Zm5.31.18-.46,4.29c1,0,2.12,0,3.29-.11q0-1.15,0-1.11a3,3,0,0,0-.79-2.25A3.07,3.07,0,0,0,190.92,235.24Z" transform="translate(-100.76 -202.94)"/></svg>