<svg id="Layer_1" data-name="Layer 1" xmlns="http://www.w3.org/2000/svg" viewBox="0 0 78.7 63.95"><defs><style>.cls-1{fill:#92278f;}.cls-2{fill:#ee2a7b;}</style></defs><path class="cls-1" d="M225.46,164.5q0,3.45-3.63,6.45a34.85,34.85,0,0,1-6.63,4,11.53,11.53,0,0,1,1.8,5.65q0,5.22-6.75,7.73A32.39,32.39,0,0,1,199,190.1H186.81l8.46-24h8.44l-7.19,20.3h1.19a22.43,22.43,0,0,0,6.94-.94c2.8-.95,4.19-2.51,4.19-4.67a4.83,4.83,0,0,0-.93-2.47,4.67,4.67,0,0,1-.94-2.1,1.32,1.32,0,0,1,.05-.46,5,5,0,0,1,2.55-2,18.88,18.88,0,0,0,4.22-2.56,5.79,5.79,0,0,0,2.25-4.5q0-3.6-5.51-3.6H183.11l3.61-5.91h27.35q5.38,0,8.09,1.45A6.21,6.21,0,0,1,225.46,164.5Z" transform="translate(-183.11 -157.12)"/><path class="cls-2" d="M223.2,176.18a9.28,9.28,0,0,1,.76-1.4c.59-1.06,1.07-2,1.46-2.7A62,62,0,0,1,244,169a22.87,22.87,0,0,1,5.24.58,8.31,8.31,0,0,1,3.87,2,8.91,8.91,0,0,1,2.29,4,37.12,37.12,0,0,1,1.31,6.53l.68,5.27,2,13.63a104.67,104.67,0,0,0,2.46,12.95,99.31,99.31,0,0,0-13.21,4.57q0-3.31-.94-18c-3.65-.24-6.13-.35-7.44-.35s-3.26.15-5.55.28l-6.43.36q-11.13,12.28-18,16.26t-12.92,4a15.16,15.16,0,0,1-9.61-2.92q-3.78-2.91-3.78-6.07,0-3.57,3.95-8a35.44,35.44,0,0,1,10.35-7.64,33.32,33.32,0,0,1,15.26-3.26c1.41,0,2.75,0,4,.12s2.72.21,4.33.38,3.25.38,4.91.62l5.89-8.53q1.73-2.52,6.91-11.51-3.45.09-7.66.58T223.2,176.18ZM198.59,202a11.27,11.27,0,0,0-2.29,6.48,5.57,5.57,0,0,0,2.26,4.92,9.17,9.17,0,0,0,5.36,1.55,46.68,46.68,0,0,0,6.5-.61c.1-.18,1.25-1.43,3.43-3.75q3-3.17,9.06-10.14Q208.44,200.91,198.59,202Zm33.46-6.91c1.5.18,3.62.51,6.35,1s5.71,1.08,8.91,1.74A182.67,182.67,0,0,0,243.68,178,168.21,168.21,0,0,1,232.05,195.05Z" transform="translate(-183.11 -157.12)"/></svg>